<svg viewBox="0 0 22 22" xmlns="http://www.w3.org/2000/svg">
  <path fill-rule="evenodd" clip-rule="evenodd"
    d="M18.1842 17.6761V17.677C18.208 17.733 18.2209 17.7945 18.2209 17.8597C18.2209 18.1213 18.0103 18.3333 17.7493 18.3333C17.6962 18.3333 17.6468 18.3186 17.5992 18.303L17.5964 18.3058C16.7239 18.1709 15.5464 17.6669 14.6271 16.7297C13.5303 17.1804 12.3024 17.4411 11.0005 17.4411C6.45085 17.4411 2.75 14.3514 2.75 10.5539C2.75 6.75641 6.45085 3.66666 11.0005 3.66666C15.5492 3.66666 19.25 6.75641 19.25 10.5539C19.25 12.1722 18.5725 13.6602 17.4481 14.8369L17.482 14.8186C16.7513 15.6034 18.1842 17.6752 18.1842 17.6752V17.6761ZM11.0005 5.50252C7.46075 5.50252 4.5812 7.76889 4.5812 10.5539C4.5812 13.3389 7.46075 15.6052 11.0005 15.6052C14.5392 15.6052 17.4188 13.3389 17.4188 10.5539C17.4188 7.76889 14.5392 5.50252 11.0005 5.50252ZM6.41667 9.16666C6.41667 8.6604 6.82707 8.25 7.33333 8.25H14.6667C15.1729 8.25 15.5833 8.6604 15.5833 9.16666C15.5833 9.67293 15.1729 10.0833 14.6667 10.0833H7.33333C6.82707 10.0833 6.41667 9.67293 6.41667 9.16666ZM7.33333 11C6.82707 11 6.41667 11.4104 6.41667 11.9167C6.41667 12.4229 6.82707 12.8333 7.33333 12.8333H10.0833C10.5896 12.8333 11 12.4229 11 11.9167C11 11.4104 10.5896 11 10.0833 11H7.33333Z" />
</svg>