<svg width="20" height="20" viewBox="0 0 20 20" fill="none" xmlns="http://www.w3.org/2000/svg">
<path d="M10.8333 14.1667C10.7237 14.1673 10.615 14.1463 10.5134 14.1048C10.4119 14.0633 10.3195 14.0022 10.2417 13.925L6.90834 10.5917C6.75313 10.4355 6.66602 10.2243 6.66602 10.0042C6.66602 9.78401 6.75313 9.5728 6.90834 9.41666L10.2417 6.08333C10.4011 5.94681 10.6062 5.87547 10.8159 5.88357C11.0256 5.89167 11.2246 5.97862 11.373 6.12703C11.5214 6.27544 11.6083 6.47439 11.6164 6.68412C11.6245 6.89385 11.5532 7.09891 11.4167 7.25833L8.67501 10L11.4167 12.7417C11.5337 12.8577 11.6137 13.0059 11.6465 13.1674C11.6793 13.3289 11.6635 13.4965 11.6011 13.649C11.5386 13.8016 11.4324 13.9322 11.2957 14.0243C11.1591 14.1164 10.9982 14.166 10.8333 14.1667Z" fill="#BDBDBD"/>
<path d="M15.8335 10.8333H7.50016C7.27915 10.8333 7.06719 10.7455 6.91091 10.5892C6.75463 10.433 6.66683 10.221 6.66683 9.99999C6.66683 9.77898 6.75463 9.56702 6.91091 9.41074C7.06719 9.25446 7.27915 9.16666 7.50016 9.16666H15.8335C16.0545 9.16666 16.2665 9.25446 16.4228 9.41074C16.579 9.56702 16.6668 9.77898 16.6668 9.99999C16.6668 10.221 16.579 10.433 16.4228 10.5892C16.2665 10.7455 16.0545 10.8333 15.8335 10.8333ZM4.16683 16.6667C3.94582 16.6667 3.73385 16.5789 3.57757 16.4226C3.42129 16.2663 3.3335 16.0543 3.3335 15.8333V4.16666C3.3335 3.94565 3.42129 3.73369 3.57757 3.57741C3.73385 3.42113 3.94582 3.33333 4.16683 3.33333C4.38784 3.33333 4.5998 3.42113 4.75608 3.57741C4.91237 3.73369 5.00016 3.94565 5.00016 4.16666V15.8333C5.00016 16.0543 4.91237 16.2663 4.75608 16.4226C4.5998 16.5789 4.38784 16.6667 4.16683 16.6667Z" fill="#BDBDBD"/>
</svg>
