<svg viewBox="0 0 16 16" fill="none"
    xmlns="http://www.w3.org/2000/svg">
    <path fill-rule="evenodd" clip-rule="evenodd" d="M7.99903 2.66693C4.31901 2.66693 1.33203 5.8936 1.33203 8.00026C1.33203 10.0576 4.38371 13.3336 7.99903 13.3336C11.6144 13.3336 14.6654 10.0576 14.6654 8.00026C14.6654 5.8936 11.6784 2.66693 7.99903 2.66693ZM7.98772 10.6563C6.51625 10.6563 5.31959 9.46027 5.31959 7.9896C5.31959 6.51893 6.51625 5.32293 7.98772 5.32293C9.4592 5.32293 10.6559 6.51893 10.6559 7.9896C10.6559 9.46027 9.4592 10.6563 7.98772 10.6563ZM7.99903 9.33333C8.73541 9.33333 9.33237 8.73638 9.33237 8C9.33237 7.26362 8.73541 6.66666 7.99903 6.66666C7.26265 6.66666 6.6657 7.26362 6.6657 8C6.6657 8.73638 7.26265 9.33333 7.99903 9.33333Z" />
</svg>
