<svg viewBox="0 0 24 24" xmlns="http://www.w3.org/2000/svg">
  <path fill-rule="evenodd" clip-rule="evenodd"
    d="M2 12C2 6.47667 6.47667 2 12 2C17.5233 2 22 6.47667 22 12C22 17.5233 17.5233 22 12 22C6.47667 22 2 17.5233 2 12ZM4 12C4 16.4188 7.58124 20 12 20C16.4188 20 20 16.4188 20 12C20 7.58124 16.4188 4 12 4C7.58124 4 4 7.58124 4 12ZM8.5 9.75006C8.49999 7.39111 10.6764 5.54163 13.1303 6.10044C14.4841 6.40794 15.5848 7.50484 15.897 8.85767C16.3573 10.8536 15.2238 12.6481 13.5241 13.2631C13.3328 13.3315 13.1969 13.5021 13.1969 13.7056V14.4378C13.1969 14.9553 12.7778 15.3753 12.2594 15.3753C11.7419 15.3753 11.3219 14.9553 11.3219 14.4378V12.5505C11.3294 12.0387 11.7438 11.6252 12.25 11.6252C13.2841 11.6252 14.125 10.7833 14.125 9.75019C14.125 8.71611 13.2841 7.87516 12.25 7.87516C11.215 7.87516 10.3744 8.74048 10.3754 9.7755C10.3612 10.2813 9.9465 10.6876 9.43752 10.6876C8.94788 10.6876 8.54553 10.3116 8.5036 9.83279C8.5036 9.83279 8.5 9.77794 8.5 9.75006ZM12.2501 18.1877C11.7326 18.1877 11.3126 17.7677 11.3126 17.2501C11.3126 16.7326 11.7326 16.3126 12.2501 16.3126C12.7676 16.3126 13.1876 16.7326 13.1876 17.2501C13.1876 17.7677 12.7676 18.1877 12.2501 18.1877Z" />
</svg>