<svg width="26" height="26" viewBox="0 0 26 26" xmlns="http://www.w3.org/2000/svg">
  <path fill-rule="evenodd" clip-rule="evenodd"
    d="M22.75 13C22.75 18.3848 18.3848 22.75 13 22.75C7.61522 22.75 3.25 18.3848 3.25 13C3.25 7.61522 7.61522 3.25 13 3.25C18.3848 3.25 22.75 7.61522 22.75 13ZM8.66667 10.8333C8.66665 8.10748 11.1816 5.97033 14.0172 6.61606C15.5815 6.97139 16.8534 8.23889 17.2141 9.80214C17.746 12.1086 16.4363 14.1821 14.4722 14.8927C14.2512 14.9718 14.0941 15.169 14.0941 15.4041V16.2501C14.0941 16.8481 13.6099 17.3335 13.0108 17.3335C12.4128 17.3335 11.9274 16.8481 11.9274 16.2501V14.0694C11.9361 13.4779 12.4149 13.0001 12.9999 13.0001C14.1949 13.0001 15.1666 12.0273 15.1666 10.8335C15.1666 9.63856 14.1949 8.66681 12.9999 8.66681C11.8039 8.66681 10.8326 9.66672 10.8337 10.8627C10.8173 11.4472 10.3382 11.9167 9.75 11.9167C9.18421 11.9167 8.71927 11.4822 8.67083 10.9289C8.67083 10.9289 8.66667 10.8655 8.66667 10.8333ZM11.9167 19.5C11.9167 20.098 12.402 20.5833 13 20.5833C13.598 20.5833 14.0833 20.098 14.0833 19.5C14.0833 18.902 13.598 18.4167 13 18.4167C12.402 18.4167 11.9167 18.902 11.9167 19.5Z" />
</svg>