<svg width="18" height="12" viewBox="0 0 18 12" fill="none" xmlns="http://www.w3.org/2000/svg">
<path fill-rule="evenodd" clip-rule="evenodd" d="M2.00001 0.166664C1.35568 0.166664 0.833344 0.688998 0.833344 1.33333C0.833344 1.97766 1.35568 2.5 2.00001 2.5H16C16.6443 2.5 17.1667 1.97766 17.1667 1.33333C17.1667 0.688998 16.6443 0.166664 16 0.166664H2.00001ZM0.833344 6C0.833344 5.35567 1.35568 4.83333 2.00001 4.83333H16C16.6443 4.83333 17.1667 5.35567 17.1667 6C17.1667 6.64433 16.6443 7.16667 16 7.16667H2.00001C1.35568 7.16667 0.833344 6.64433 0.833344 6ZM0.833344 10.6667C0.833344 10.0223 1.35568 9.5 2.00001 9.5H16C16.6443 9.5 17.1667 10.0223 17.1667 10.6667C17.1667 11.311 16.6443 11.8333 16 11.8333H2.00001C1.35568 11.8333 0.833344 11.311 0.833344 10.6667Z" fill="#616161"/>
</svg>
