<svg viewBox="0 0 24 24" xmlns="http://www.w3.org/2000/svg">
  <path fill-rule="evenodd" clip-rule="evenodd"
    d="M20 4.01344V19.7108C20 20.2631 19.5523 20.7108 19 20.7108H7.1875C6.37509 20.7108 5.577 20.4223 4.97298 19.8805C4.36537 19.3355 4 18.5715 4 17.7487V5.97562C4 5.15275 4.36537 4.38876 4.97298 3.84374C5.577 3.30194 6.37509 3.01344 7.1875 3.01344H19C19.5523 3.01344 20 3.46116 20 4.01344ZM7.1875 5.01344C6.83958 5.01344 6.52488 5.13841 6.30843 5.33256C6.09556 5.5235 6 5.75768 6 5.97562V14.7376C6.37718 14.5972 6.78054 14.5249 7.1875 14.5249H18V5.01344H15.2637V9.87781C15.2637 10.1468 15.0966 10.3932 14.8304 10.517C14.7142 10.5708 14.5874 10.5977 14.4612 10.5977C14.2986 10.5977 14.1361 10.5533 13.9981 10.4657L12 9.19946L10.002 10.4657C9.75746 10.6207 9.43618 10.6409 9.16999 10.517C8.90351 10.3932 8.73633 10.1468 8.73633 9.87781V5.01344H7.1875ZM10.3414 5.01344V8.4877L11.537 7.72993C11.8144 7.55403 12.1851 7.55403 12.4631 7.72993L13.6586 8.4877V5.01344H10.3414ZM6.30843 16.844C6.09556 17.0349 6 17.2691 6 17.487V17.7487C6 17.9666 6.09556 18.2008 6.30843 18.3917C6.52488 18.5859 6.83958 18.7108 7.1875 18.7108H18V16.5249H7.1875C6.83958 16.5249 6.52488 16.6498 6.30843 16.844Z" />
</svg>