<svg viewBox="0 0 24 24" xmlns="http://www.w3.org/2000/svg">
  <path fill-rule="evenodd" clip-rule="evenodd"
    d="M12.9389 5.10713C10.3214 4.51108 7.99999 6.48383 8 9C8 9.02973 8.00385 9.08823 8.00385 9.08823C8.04856 9.59896 8.47773 10 9 10C9.54291 10 9.98522 9.56663 10.0004 9.02713C9.99935 7.92313 10.8959 7.00013 11.9999 7.00013C13.1029 7.00013 13.9999 7.89713 13.9999 9.00013C13.9999 10.1021 13.1029 11.0001 11.9999 11.0001C11.4599 11.0001 11.0179 11.4411 11.0099 11.9871V14.0001C11.0099 14.5521 11.4579 15.0001 12.0099 15.0001C12.5629 15.0001 13.0099 14.5521 13.0099 14.0001V13.2191C13.0099 13.0021 13.1549 12.8201 13.3589 12.7471C15.1719 12.0911 16.3809 10.1771 15.8899 8.04813C15.5569 6.60513 14.3829 5.43513 12.9389 5.10713ZM11 17C11 17.552 11.448 18 12 18C12.552 18 13 17.552 13 17C13 16.448 12.552 16 12 16C11.448 16 11 16.448 11 17Z" />
</svg>