<svg width="20" height="20" viewBox="0 0 20 20" fill="none" xmlns="http://www.w3.org/2000/svg">
<path fill-rule="evenodd" clip-rule="evenodd" d="M10 20C15.5228 20 20 15.5228 20 10C20 4.47715 15.5228 0 10 0C4.47715 0 0 4.47715 0 10C0 15.5228 4.47715 20 10 20ZM5.88097 9.21432C6.31488 8.78041 7.0184 8.78041 7.45231 9.21432L8.88886 10.6509L12.5476 6.9921C12.9815 6.55819 13.6851 6.55819 14.119 6.9921C14.5529 7.42602 14.5529 8.12954 14.119 8.56345L9.67454 13.0079C9.24062 13.4418 8.5371 13.4418 8.10319 13.0079L5.88097 10.7857C5.44705 10.3518 5.44705 9.64824 5.88097 9.21432Z" fill="#67AC5B"/>
</svg>
