<svg viewBox="0 0 16 16" fill="none" xmlns="http://www.w3.org/2000/svg">
  <path fill-rule="evenodd" clip-rule="evenodd"
    d="M7.99984 13.3333C10.9454 13.3333 13.3332 10.9455 13.3332 8C13.3332 5.05448 10.9454 2.66666 7.99984 2.66666C5.05432 2.66666 2.6665 5.05448 2.6665 8C2.6665 10.9455 5.05432 13.3333 7.99984 13.3333ZM5.80307 7.58097C6.03449 7.34955 6.4097 7.34955 6.64112 7.58097L7.40728 8.34713L9.35863 6.39579C9.59005 6.16437 9.96526 6.16437 10.1967 6.39579C10.4281 6.62721 10.4281 7.00242 10.1967 7.23384L7.82631 9.60421C7.59489 9.83563 7.21968 9.83563 6.98825 9.60421L5.80307 8.41903C5.57165 8.1876 5.57165 7.81239 5.80307 7.58097Z"
    fill="#219653" />
</svg>