<svg viewBox="0 0 26 26" xmlns="http://www.w3.org/2000/svg">
  <path fill-rule="evenodd" clip-rule="evenodd"
    d="M4.33333 5.33334C4.33333 4.78106 4.78104 4.33334 5.33333 4.33334H7.66666C8.21895 4.33334 8.66666 4.78106 8.66666 5.33334V7.66668C8.66666 8.21896 8.21895 8.66668 7.66666 8.66668H5.33333C4.78104 8.66668 4.33333 8.21896 4.33333 7.66668V5.33334ZM4.33333 11.8333C4.33333 11.2811 4.78104 10.8333 5.33333 10.8333H7.66666C8.21895 10.8333 8.66666 11.2811 8.66666 11.8333V14.1667C8.66666 14.719 8.21895 15.1667 7.66666 15.1667H5.33333C4.78104 15.1667 4.33333 14.719 4.33333 14.1667V11.8333ZM11.8333 4.33334C11.281 4.33334 10.8333 4.78106 10.8333 5.33334V7.66668C10.8333 8.21896 11.281 8.66668 11.8333 8.66668H14.1667C14.7189 8.66668 15.1667 8.21896 15.1667 7.66668V5.33334C15.1667 4.78106 14.7189 4.33334 14.1667 4.33334H11.8333ZM10.8333 11.8333C10.8333 11.2811 11.281 10.8333 11.8333 10.8333H14.1667C14.7189 10.8333 15.1667 11.2811 15.1667 11.8333V14.1667C15.1667 14.719 14.7189 15.1667 14.1667 15.1667H11.8333C11.281 15.1667 10.8333 14.719 10.8333 14.1667V11.8333ZM18.3333 4.33334C17.781 4.33334 17.3333 4.78106 17.3333 5.33334V7.66668C17.3333 8.21896 17.781 8.66668 18.3333 8.66668H20.6667C21.2189 8.66668 21.6667 8.21896 21.6667 7.66668V5.33334C21.6667 4.78106 21.2189 4.33334 20.6667 4.33334H18.3333ZM17.3333 11.8333C17.3333 11.2811 17.781 10.8333 18.3333 10.8333H20.6667C21.2189 10.8333 21.6667 11.2811 21.6667 11.8333V14.1667C21.6667 14.719 21.2189 15.1667 20.6667 15.1667H18.3333C17.781 15.1667 17.3333 14.719 17.3333 14.1667V11.8333ZM5.33333 17.3333C4.78104 17.3333 4.33333 17.7811 4.33333 18.3333V20.6667C4.33333 21.219 4.78104 21.6667 5.33333 21.6667H7.66666C8.21895 21.6667 8.66666 21.219 8.66666 20.6667V18.3333C8.66666 17.7811 8.21895 17.3333 7.66666 17.3333H5.33333ZM10.8333 18.3333C10.8333 17.7811 11.281 17.3333 11.8333 17.3333H14.1667C14.7189 17.3333 15.1667 17.7811 15.1667 18.3333V20.6667C15.1667 21.219 14.7189 21.6667 14.1667 21.6667H11.8333C11.281 21.6667 10.8333 21.219 10.8333 20.6667V18.3333ZM18.3333 17.3333C17.781 17.3333 17.3333 17.7811 17.3333 18.3333V20.6667C17.3333 21.219 17.781 21.6667 18.3333 21.6667H20.6667C21.2189 21.6667 21.6667 21.219 21.6667 20.6667V18.3333C21.6667 17.7811 21.2189 17.3333 20.6667 17.3333H18.3333Z" />
</svg>