<svg viewBox="0 0 16 16" xmlns="http://www.w3.org/2000/svg">
  <path fill-rule="evenodd" clip-rule="evenodd"
    d="M7.05687 8L3.52827 4.4714C3.26792 4.21105 3.26792 3.78894 3.52827 3.52859C3.78862 3.26824 4.21073 3.26824 4.47108 3.52859L7.99967 7.05719L11.5283 3.52859C11.7886 3.26824 12.2107 3.26824 12.4711 3.52859C12.7314 3.78894 12.7314 4.21105 12.4711 4.4714L8.94248 8L12.4711 11.5286C12.7314 11.7889 12.7314 12.2111 12.4711 12.4714C12.2107 12.7317 11.7886 12.7317 11.5283 12.4714L7.99967 8.9428L4.47108 12.4714C4.21073 12.7317 3.78862 12.7317 3.52827 12.4714C3.26792 12.2111 3.26792 11.7889 3.52827 11.5286L7.05687 8Z" />
</svg>