<svg width="76" height="32" viewBox="0 0 76 32" fill="none" xmlns="http://www.w3.org/2000/svg">
  <path
    d="M3.99901 28.7753V30.169C3.99901 31.4273 3.29679 31.9955 2.01214 31.9955H1.98797C0.703316 31.9955 0 31.4396 0 30.169V24.9892C0 23.7801 0.703316 23.1627 1.98797 23.1627H2.01214C3.29679 23.1627 3.99901 23.7801 3.99901 24.9892V26.1726C4.00456 26.216 4.00026 26.2601 3.98644 26.3015C3.97263 26.343 3.94966 26.3806 3.91931 26.4116C3.88896 26.4426 3.85203 26.4661 3.81137 26.4803C3.7707 26.4945 3.72737 26.4991 3.68472 26.4936H3.45394C3.41048 26.4997 3.36623 26.4957 3.3245 26.4819C3.28276 26.4682 3.24462 26.445 3.21292 26.4141C3.18122 26.3833 3.15679 26.3455 3.14143 26.3037C3.12608 26.2618 3.12021 26.217 3.12426 26.1726V25.2106C3.12426 24.3226 2.79458 23.9646 1.99786 23.9646C1.20113 23.9646 0.872552 24.3226 0.872552 25.2106V29.9475C0.872552 30.8356 1.20223 31.1936 2.00006 31.1936C2.79788 31.1936 3.12646 30.8356 3.12646 29.9475V28.7753C3.12259 28.731 3.12859 28.6863 3.14402 28.6446C3.15945 28.6029 3.18391 28.5653 3.21559 28.5346C3.24727 28.5038 3.28534 28.4808 3.32699 28.4671C3.36864 28.4534 3.41278 28.4494 3.45614 28.4554H3.68692C3.7293 28.4504 3.77226 28.4552 3.81255 28.4695C3.85285 28.4838 3.88941 28.5072 3.91948 28.5381C3.94955 28.5689 3.97234 28.6063 3.98612 28.6474C3.9999 28.6885 4.00431 28.7322 3.99901 28.7753Z"
    fill="#293947" />
  <path
    d="M9.76848 23.1627H9.86519C11.1498 23.1627 11.8532 23.7555 11.8532 24.9892V30.169C11.8532 31.3994 11.1498 31.9955 9.86519 31.9955H9.76848C8.48383 31.9955 7.78052 31.4027 7.78052 30.169V24.9892C7.78052 23.7432 8.48383 23.1627 9.76848 23.1627ZM9.81684 31.1936C10.6289 31.1936 10.9806 30.8479 10.9806 29.9475V25.2106C10.9806 24.3102 10.6289 23.9646 9.81684 23.9646C9.00473 23.9646 8.65307 24.3102 8.65307 25.2106V29.9475C8.65307 30.8479 9.00473 31.1936 9.81684 31.1936Z"
    fill="#293947" />
  <path
    d="M19.0114 31.4027V31.5761C19.0168 31.6194 19.0123 31.6634 18.9984 31.7047C18.9845 31.746 18.9615 31.7835 18.9312 31.8144C18.9009 31.8452 18.864 31.8686 18.8234 31.8828C18.7829 31.8969 18.7397 31.9014 18.6971 31.896H16.0443C16.0017 31.9014 15.9585 31.8969 15.9179 31.8828C15.8774 31.8686 15.8405 31.8452 15.8102 31.8144C15.7799 31.7835 15.7569 31.746 15.743 31.7047C15.7291 31.6634 15.7246 31.6194 15.73 31.5761V23.5821C15.725 23.539 15.7297 23.4952 15.7438 23.4542C15.7578 23.4132 15.7809 23.376 15.8112 23.3454C15.8414 23.3148 15.8782 23.2916 15.9186 23.2776C15.9589 23.2635 16.0019 23.2591 16.0443 23.2644H16.2751C16.3184 23.2584 16.3626 23.2624 16.4042 23.276C16.4459 23.2897 16.4839 23.3128 16.5156 23.3436C16.5473 23.3743 16.5718 23.4119 16.5872 23.4536C16.6026 23.4953 16.6086 23.54 16.6047 23.5843V31.0828H18.7015C18.7435 31.0792 18.7857 31.085 18.8253 31.0998C18.8648 31.1146 18.9006 31.1382 18.9302 31.1687C18.9598 31.1993 18.9824 31.2361 18.9965 31.2765C19.0105 31.3169 19.0156 31.36 19.0114 31.4027Z"
    fill="#293947" />
  <path
    d="M25.6929 31.4027V31.5761C25.6983 31.6195 25.6939 31.6636 25.6799 31.705C25.666 31.7464 25.6429 31.784 25.6124 31.8149C25.582 31.8458 25.545 31.8692 25.5042 31.8832C25.4635 31.8973 25.4202 31.9017 25.3775 31.896H22.7236C22.681 31.9017 22.6376 31.8973 22.5969 31.8832C22.5562 31.8692 22.5192 31.8458 22.4888 31.8149C22.4583 31.784 22.4352 31.7464 22.4212 31.705C22.4073 31.6636 22.4028 31.6195 22.4082 31.5761V23.5821C22.4028 23.5387 22.4073 23.4946 22.4212 23.4532C22.4352 23.4118 22.4583 23.3742 22.4888 23.3433C22.5192 23.3124 22.5562 23.2891 22.5969 23.275C22.6376 23.2609 22.681 23.2566 22.7236 23.2622H22.9533C22.9967 23.2559 23.0409 23.2598 23.0827 23.2734C23.1244 23.287 23.1626 23.3101 23.1943 23.3408C23.226 23.3716 23.2505 23.4093 23.2659 23.4511C23.2812 23.4929 23.2871 23.5377 23.283 23.5821V31.0828H25.3797C25.422 31.0787 25.4646 31.0841 25.5046 31.0987C25.5445 31.1133 25.5808 31.1367 25.6107 31.1673C25.6407 31.1979 25.6636 31.2349 25.6778 31.2756C25.692 31.3163 25.6972 31.3598 25.6929 31.4027Z"
    fill="#293947" />
  <path
    d="M32.8801 31.896H32.6251C32.5837 31.8998 32.5419 31.8952 32.5022 31.8823C32.4626 31.8694 32.4259 31.8486 32.3942 31.8211C32.3626 31.7936 32.3367 31.7599 32.318 31.7221C32.2993 31.6842 32.2883 31.643 32.2856 31.6007L31.9229 29.763H29.8349L29.4712 31.6007C29.4693 31.6433 29.4589 31.685 29.4406 31.7234C29.4222 31.7617 29.3963 31.7957 29.3644 31.8234C29.3326 31.8511 29.2955 31.8718 29.2554 31.8843C29.2154 31.8968 29.1732 31.9008 29.1316 31.896H28.925C28.7052 31.896 28.5953 31.7729 28.6349 31.5392L30.3075 23.5452C30.3124 23.5031 30.3254 23.4624 30.3458 23.4255C30.3662 23.3886 30.3936 23.3561 30.4264 23.33C30.4592 23.3039 30.4967 23.2847 30.5369 23.2734C30.577 23.2622 30.6189 23.2591 30.6602 23.2644H31.1207C31.162 23.2593 31.2039 23.2626 31.244 23.2741C31.284 23.2855 31.3215 23.305 31.3541 23.3313C31.3867 23.3577 31.4139 23.3903 31.434 23.4274C31.4541 23.4645 31.4667 23.5053 31.4712 23.5474L33.1702 31.5414C33.2076 31.7729 33.0977 31.896 32.8801 31.896ZM31.7647 28.9879L30.88 24.4948L30.0009 28.9856L31.7647 28.9879Z"
    fill="#293947" />
  <path
    d="M39.6715 27.4029C40.4594 27.526 40.6605 28.1803 40.6605 28.772V30.1992C40.6605 31.2059 39.9814 31.9005 38.6967 31.9005H36.9637C36.9211 31.9059 36.8779 31.9013 36.8372 31.8872C36.7966 31.8731 36.7597 31.8497 36.7293 31.8188C36.6989 31.788 36.6758 31.7505 36.6618 31.7092C36.6477 31.6679 36.6431 31.6239 36.6483 31.5806V23.5821C36.6431 23.5387 36.6477 23.4947 36.6618 23.4534C36.6758 23.4121 36.6989 23.3747 36.7293 23.3438C36.7597 23.313 36.7966 23.2896 36.8372 23.2755C36.8779 23.2613 36.9211 23.2568 36.9637 23.2622H38.722C40.0066 23.2622 40.6133 23.9523 40.6133 24.9635V26.0495C40.6122 26.6289 40.4056 27.3325 39.6715 27.4029ZM37.5264 27.0327H38.7011C39.3803 27.0327 39.744 26.762 39.744 26.1569V25.1659C39.744 24.4255 39.4528 24.0552 38.7011 24.0552H37.522L37.5264 27.0327ZM38.7495 27.8224H37.522V31.1041H38.7451C39.4967 31.1041 39.788 30.7339 39.788 29.9934V28.7015C39.788 28.0975 39.4242 27.8257 38.7451 27.8257L38.7495 27.8224Z"
    fill="#293947" />
  <path
    d="M46.3563 23.1627H46.453C47.7376 23.1627 48.4409 23.7555 48.4409 24.9892V30.169C48.4409 31.3994 47.7376 31.9955 46.453 31.9955H46.3563C45.0716 31.9955 44.3694 31.4027 44.3694 30.169V24.9892C44.3694 23.7432 45.0716 23.1627 46.3563 23.1627ZM46.4046 31.1936C47.2167 31.1936 47.5684 30.8479 47.5684 29.9475V25.2106C47.5684 24.3102 47.2167 23.9646 46.4046 23.9646C45.5925 23.9646 45.2419 24.3102 45.2419 25.2106V29.9475C45.2419 30.8479 45.5925 31.1936 46.4046 31.1936Z"
    fill="#293947" />
  <path
    d="M55.628 23.5821V23.7432C55.6323 23.7864 55.6271 23.8301 55.6127 23.871C55.5984 23.9119 55.5753 23.9491 55.5451 23.9798C55.5149 24.0106 55.4784 24.0341 55.4382 24.0487C55.398 24.0632 55.3551 24.0686 55.3126 24.0642H54.0763V31.5761C54.0817 31.6194 54.0772 31.6634 54.0633 31.7047C54.0494 31.746 54.0264 31.7835 53.9961 31.8144C53.9658 31.8452 53.9289 31.8686 53.8884 31.8828C53.8478 31.8969 53.8046 31.9015 53.762 31.896H53.5181C53.4756 31.9005 53.4328 31.8954 53.3925 31.881C53.3523 31.8665 53.3158 31.8431 53.2855 31.8125C53.2553 31.7818 53.2322 31.7447 53.2179 31.7038C53.2035 31.6629 53.1983 31.6193 53.2027 31.5761V24.0642H51.9796C51.9369 24.0695 51.8937 24.0648 51.8532 24.0505C51.8126 24.0362 51.7758 24.0127 51.7455 23.9817C51.7152 23.9508 51.6922 23.9132 51.6783 23.8719C51.6644 23.8305 51.6599 23.7865 51.6653 23.7432V23.5821C51.6603 23.539 51.665 23.4952 51.679 23.4542C51.6931 23.4132 51.7161 23.376 51.7464 23.3454C51.7767 23.3148 51.8134 23.2916 51.8538 23.2776C51.8942 23.2635 51.9372 23.2591 51.9796 23.2644H55.3126C55.3548 23.26 55.3975 23.2651 55.4375 23.2794C55.4776 23.2937 55.514 23.3169 55.5442 23.3473C55.5743 23.3777 55.5975 23.4145 55.612 23.4551C55.6265 23.4957 55.632 23.5391 55.628 23.5821Z"
    fill="#293947" />
  <path
    d="M59.5302 31.896H59.2994C59.2569 31.9015 59.2136 31.8969 59.1731 31.8828C59.1325 31.8687 59.0956 31.8453 59.0653 31.8144C59.035 31.7835 59.012 31.746 58.9981 31.7047C58.9842 31.6634 58.9798 31.6194 58.9851 31.5761V23.5821C58.9798 23.5388 58.9842 23.4948 58.9981 23.4535C59.012 23.4122 59.035 23.3747 59.0653 23.3438C59.0956 23.313 59.1325 23.2896 59.1731 23.2754C59.2136 23.2613 59.2569 23.2568 59.2994 23.2622H59.5302C59.5735 23.2562 59.6177 23.2601 59.6593 23.2738C59.701 23.2875 59.739 23.3106 59.7707 23.3413C59.8024 23.3721 59.8269 23.4097 59.8423 23.4514C59.8577 23.493 59.8637 23.5377 59.8599 23.5821V31.5761C59.8637 31.6205 59.8577 31.6652 59.8423 31.7069C59.8269 31.7485 59.8024 31.7862 59.7707 31.8169C59.739 31.8476 59.701 31.8707 59.6593 31.8844C59.6177 31.8981 59.5735 31.9021 59.5302 31.896Z"
    fill="#293947" />
  <path
    d="M67.7712 28.7753V30.169C67.7712 31.4273 67.0679 31.9955 65.7833 31.9955H65.7591C64.4744 31.9955 63.7722 31.4363 63.7722 30.169V24.9892C63.7722 23.7801 64.4744 23.1627 65.7591 23.1627H65.7833C67.0679 23.1627 67.7712 23.7801 67.7712 24.9892V26.1726C67.7768 26.2161 67.7725 26.2603 67.7586 26.3018C67.7447 26.3434 67.7217 26.3811 67.6912 26.4121C67.6607 26.4431 67.6236 26.4666 67.5828 26.4807C67.542 26.4949 67.4986 26.4993 67.4558 26.4936H67.2262C67.1827 26.4999 67.1383 26.4961 67.0965 26.4824C67.0547 26.4687 67.0164 26.4455 66.9847 26.4146C66.9529 26.3837 66.9285 26.3459 66.9132 26.3039C66.8979 26.262 66.8922 26.2171 66.8965 26.1726V25.2106C66.8965 24.3226 66.5668 23.9646 65.769 23.9646C64.9711 23.9646 64.6426 24.3226 64.6426 25.2106V29.9475C64.6426 30.8356 64.9722 31.1936 65.769 31.1936C66.5657 31.1936 66.8965 30.8356 66.8965 29.9475V28.7753C66.8924 28.7309 66.8982 28.6861 66.9136 28.6443C66.929 28.6026 66.9534 28.5649 66.9852 28.5341C67.0169 28.5033 67.055 28.4802 67.0968 28.4666C67.1385 28.453 67.1828 28.4492 67.2262 28.4554H67.4558C67.4985 28.4498 67.5418 28.4542 67.5825 28.4682C67.6233 28.4823 67.6603 28.5057 67.6907 28.5366C67.7212 28.5675 67.7443 28.605 67.7582 28.6464C67.7722 28.6878 67.7766 28.7319 67.7712 28.7753Z"
    fill="#293947" />
  <path
    d="M75.0186 26.2721H74.7878C74.7453 26.2765 74.7024 26.2712 74.6622 26.2566C74.622 26.242 74.5855 26.2185 74.5553 26.1878C74.5251 26.1571 74.502 26.1199 74.4877 26.079C74.4733 26.038 74.4681 25.9944 74.4724 25.9511V25.1369C74.4724 24.3103 74.1427 23.9523 73.3823 23.9523C72.6218 23.9523 72.291 24.3103 72.291 25.1369V25.7408C72.291 26.3214 72.4855 26.4936 73.0548 26.8146L74.2636 27.4924C74.923 27.8627 75.3549 28.319 75.3549 29.0472V30.1992C75.3549 31.4576 74.6878 32 73.4031 32H73.379C72.0943 32 71.4272 31.4687 71.4272 30.1992V29.0807C71.4219 29.0373 71.4264 28.9931 71.4403 28.9517C71.4543 28.9103 71.4773 28.8726 71.5078 28.8417C71.5382 28.8107 71.5752 28.7872 71.6159 28.773C71.6566 28.7588 71.7 28.7543 71.7426 28.7597H71.98C72.0225 28.7553 72.0653 28.7606 72.1055 28.7752C72.1457 28.7898 72.1821 28.8133 72.2122 28.8441C72.2423 28.8748 72.2653 28.912 72.2795 28.953C72.2937 28.9939 72.2988 29.0375 72.2943 29.0807V29.9934C72.2943 30.8077 72.624 31.2025 73.3932 31.2025C74.1625 31.2025 74.4922 30.8077 74.4922 29.9934V29.3044C74.4922 28.725 74.2724 28.5036 73.6922 28.1703L72.5042 27.4991C71.7646 27.0797 71.4251 26.7229 71.4251 25.9701V24.9422C71.4251 23.7331 72.2009 23.1649 73.3647 23.1649H73.3889C74.5526 23.1649 75.3285 23.7331 75.3285 24.9422V25.9489C75.334 25.992 75.3299 26.0358 75.3164 26.0771C75.3029 26.1183 75.2804 26.1559 75.2506 26.1871C75.2208 26.2182 75.1844 26.242 75.1442 26.2567C75.104 26.2715 75.0611 26.2767 75.0186 26.2721Z"
    fill="#293947" />
  <path
    d="M43.5771 13.8689C43.1254 13.8689 42.6921 13.6863 42.3727 13.3612C42.0532 13.036 41.8738 12.5951 41.8738 12.1353V5.20049C41.8738 4.74068 42.0532 4.29971 42.3727 3.97458C42.6921 3.64945 43.1254 3.4668 43.5771 3.4668C44.0289 3.4668 44.4621 3.64945 44.7816 3.97458C45.101 4.29971 45.2805 4.74068 45.2805 5.20049V12.1353C45.2805 12.5951 45.101 13.036 44.7816 13.3612C44.4621 13.6863 44.0289 13.8689 43.5771 13.8689Z"
    fill="#CCD1DE" />
  <path
    d="M43.5749 6.93419C43.2765 6.93421 42.9835 6.85395 42.7254 6.70154L36.8275 3.23415C36.6338 3.12039 36.464 2.96892 36.3279 2.78838C36.1917 2.60784 36.0918 2.40178 36.0339 2.18195C35.976 1.96213 35.9612 1.73284 35.9904 1.50719C36.0195 1.28154 36.092 1.06395 36.2038 0.866827C36.3156 0.669708 36.4644 0.496925 36.6418 0.358346C36.8192 0.219766 37.0216 0.118103 37.2376 0.0591602C37.4536 0.000217783 37.6788 -0.0148494 37.9005 0.0148189C38.1222 0.0444873 38.336 0.11831 38.5297 0.232072L44.4277 3.69946C44.7531 3.88984 45.0077 4.1844 45.1516 4.53729C45.2956 4.89018 45.3208 5.2816 45.2236 5.65063C45.1263 6.01967 44.9119 6.34562 44.6137 6.57776C44.3155 6.80991 43.9503 6.93521 43.5749 6.93419Z"
    fill="#A0CF4A" />
  <path
    d="M31.7811 13.8689C31.5575 13.8689 31.336 13.8241 31.1294 13.737C30.9228 13.6498 30.7351 13.5221 30.577 13.3611C30.419 13.2001 30.2936 13.009 30.2081 12.7986C30.1226 12.5883 30.0787 12.3629 30.0789 12.1353V5.20049C30.0789 4.74068 30.2583 4.29971 30.5778 3.97458C30.8972 3.64945 31.3304 3.4668 31.7822 3.4668C32.234 3.4668 32.6672 3.64945 32.9867 3.97458C33.3061 4.29971 33.4856 4.74068 33.4856 5.20049V12.1353C33.4857 12.3631 33.4417 12.5887 33.3561 12.7991C33.2705 13.0096 33.1449 13.2009 32.9866 13.3619C32.8283 13.5229 32.6403 13.6506 32.4335 13.7376C32.2266 13.8246 32.0049 13.8692 31.7811 13.8689Z"
    fill="#3590EC" />
  <path
    d="M37.677 17.3285C37.3786 17.3285 37.0856 17.2482 36.8275 17.0958L30.9296 13.6284C30.5383 13.3978 30.253 13.0184 30.1366 12.5737C30.0202 12.129 30.0821 11.6555 30.3087 11.2572C30.5353 10.859 30.908 10.5686 31.3449 10.4501C31.7818 10.3316 32.2471 10.3946 32.6384 10.6253L38.5353 14.0926C38.8602 14.2833 39.1142 14.5778 39.2577 14.9305C39.4013 15.2831 39.4264 15.6741 39.3292 16.0428C39.232 16.4115 39.0178 16.7372 38.7201 16.9693C38.4223 17.2013 38.0575 17.3268 37.6825 17.3262L37.677 17.3285Z"
    fill="#5738AB" />
  <path
    d="M37.6802 17.3285C37.3044 17.3299 36.9388 17.2048 36.6402 16.9726C36.3416 16.7404 36.1269 16.4142 36.0296 16.0448C35.9322 15.6754 35.9577 15.2836 36.102 14.9305C36.2463 14.5774 36.5014 14.2828 36.8274 14.0926L42.7254 10.6252C43.1164 10.3955 43.581 10.3332 44.0171 10.4522C44.4532 10.5711 44.825 10.8615 45.0507 11.2594C45.2764 11.6574 45.3376 12.1303 45.2207 12.5742C45.1039 13.018 44.8186 13.3965 44.4276 13.6262L38.5296 17.0936C38.2718 17.2468 37.9787 17.3278 37.6802 17.3285Z"
    fill="#902A8D" />
  <path
    d="M31.7823 6.9351C31.4072 6.9357 31.0425 6.81021 30.7447 6.57813C30.447 6.34605 30.2328 6.02037 30.1356 5.65169C30.0384 5.28301 30.0635 4.89197 30.207 4.53931C30.3506 4.18665 30.6046 3.89213 30.9295 3.70149L36.8275 0.234105C37.2185 0.00435133 37.6831 -0.057906 38.1192 0.0610288C38.5553 0.179964 38.9271 0.470348 39.1528 0.8683C39.3786 1.26625 39.4397 1.73918 39.3229 2.18303C39.206 2.62689 38.9207 3.00532 38.5297 3.23507L32.6384 6.70022C32.3785 6.8544 32.0831 6.93547 31.7823 6.9351Z"
    fill="#3BCA8B" />
  <path
    d="M38.5297 14.0927L37.6791 13.5927L36.8274 14.0927C36.5029 14.2834 36.2493 14.5777 36.1059 14.9301C35.9625 15.2824 35.9373 15.6731 36.0343 16.0415C36.1313 16.4099 36.345 16.7355 36.6423 16.9677C36.9396 17.1998 37.3038 17.3257 37.6786 17.3257C38.0533 17.3257 38.4175 17.1998 38.7148 16.9677C39.0121 16.7355 39.2258 16.4099 39.3228 16.0415C39.4198 15.6731 39.3946 15.2824 39.2512 14.9301C39.1078 14.5777 38.8542 14.2834 38.5297 14.0927Z"
    fill="#31095F" />
  <path
    d="M36.8274 3.23303L37.6791 3.73412L38.5297 3.23303C38.8542 3.04233 39.1078 2.74797 39.2512 2.3956C39.3946 2.04323 39.4198 1.65255 39.3228 1.28415C39.2258 0.915747 39.0121 0.590211 38.7148 0.35803C38.4175 0.12585 38.0533 0 37.6786 0C37.3038 0 36.9396 0.12585 36.6423 0.35803C36.345 0.590211 36.1313 0.915747 36.0343 1.28415C35.9373 1.65255 35.9625 2.04323 36.1059 2.3956C36.2493 2.74797 36.5029 3.04233 36.8274 3.23303Z"
    fill="#25A428" />
  <path
    d="M42.7254 10.6253L41.8694 11.1297V12.1297C41.8696 12.5108 41.9933 12.8812 42.2213 13.1835C42.4492 13.4858 42.7688 13.7032 43.1304 13.802C43.4921 13.9007 43.8756 13.8754 44.2217 13.7299C44.5677 13.5843 44.857 13.3267 45.0446 12.9969C45.2323 12.6672 45.3079 12.2836 45.2597 11.9057C45.2115 11.5277 45.0423 11.1765 44.7781 10.9064C44.514 10.6363 44.1697 10.4623 43.7986 10.4115C43.4275 10.3607 43.0503 10.4358 42.7254 10.6253Z"
    fill="#73227B" />
  <path
    d="M32.6384 6.69929L33.489 6.19932V5.19266C33.4876 4.81151 33.3627 4.44148 33.1338 4.13987C32.9048 3.83825 32.5845 3.6219 32.2225 3.52432C31.8605 3.42675 31.477 3.45339 31.1314 3.60012C30.7858 3.74685 30.4974 4.00548 30.3108 4.33596C30.1242 4.66643 30.0499 5.0503 30.0994 5.42811C30.1489 5.80591 30.3194 6.15657 30.5845 6.42575C30.8496 6.69494 31.1946 6.86763 31.5659 6.91708C31.9372 6.96654 32.3141 6.88999 32.6384 6.69929Z"
    fill="#0C7281" />
  <path
    d="M41.8694 5.19825V6.20491L42.7211 6.70488C43.0454 6.89532 43.4224 6.97159 43.7936 6.92187C44.1649 6.87216 44.5097 6.69924 44.7746 6.4299C45.0395 6.16056 45.2098 5.80983 45.2591 5.43202C45.3083 5.05421 45.2338 4.67041 45.0471 4.34007C44.8603 4.00972 44.5718 3.75126 44.2261 3.60472C43.8805 3.45818 43.497 3.43173 43.1351 3.52948C42.7731 3.62722 42.453 3.8437 42.2242 4.14538C41.9953 4.44707 41.8706 4.81713 41.8694 5.19825Z"
    fill="#80AA40" />
  <path
    d="M33.4835 12.1296V11.1297L32.6384 10.6253C32.3137 10.4341 31.9362 10.3574 31.5643 10.407C31.1924 10.4566 30.847 10.6298 30.5817 10.8996C30.3164 11.1694 30.146 11.5208 30.0969 11.8993C30.0479 12.2777 30.1229 12.6621 30.3104 12.9927C30.4979 13.3233 30.7873 13.5817 31.1338 13.7278C31.4803 13.8738 31.8645 13.8994 32.2268 13.8006C32.589 13.7017 32.9091 13.4839 33.1373 13.181C33.3655 12.878 33.4891 12.5069 33.489 12.1252L33.4835 12.1296Z"
    fill="#12209E" />
</svg>