<svg width="18" height="18" viewBox="0 0 18 18" fill="none" xmlns="http://www.w3.org/2000/svg">
<path fill-rule="evenodd" clip-rule="evenodd" d="M8.99666 3.32829C9.15511 3.11393 9.17286 2.82649 9.04198 2.59426C8.9111 2.36203 8.65602 2.22835 8.39058 2.25288C7.11149 2.37109 5.89251 2.85113 4.87628 3.63684C3.86006 4.42255 3.08861 5.48142 2.65222 6.68957C2.21583 7.89772 2.13254 9.20516 2.4121 10.4589C2.69166 11.7127 3.3225 12.8609 4.23081 13.7692C5.13912 14.6775 6.28733 15.3083 7.54109 15.5879C8.79484 15.8675 10.1023 15.7842 11.3104 15.3478C12.5186 14.9114 13.5775 14.1399 14.3632 13.1237C15.1489 12.1075 15.6289 10.8885 15.7471 9.60942C15.7471 9.60942 15.7471 9.20687 15.4377 9.01291C15.1282 8.81894 14.6717 9.00334 14.6717 9.00334C13.8901 9.58104 12.9272 9.85903 11.958 9.78676C10.9888 9.71448 10.0777 9.29674 9.3905 8.60951C8.70327 7.92227 8.28552 7.01121 8.21325 6.04201C8.14097 5.0728 8.41896 4.10985 8.99666 3.32829ZM14.1005 10.8278C13.3883 11.0855 12.6243 11.1928 11.8574 11.1356C10.5651 11.0392 9.35039 10.4822 8.43408 9.56592C7.51777 8.64962 6.96078 7.43486 6.86441 6.14259C6.80722 5.3757 6.91451 4.61174 7.17218 3.89952C6.64629 4.0898 6.15045 4.36141 5.70361 4.70689C4.89063 5.33546 4.27347 6.18256 3.92436 7.14907C3.57525 8.11559 3.50862 9.16155 3.73226 10.1646C3.95591 11.1676 4.46058 12.0861 5.18723 12.8128C5.91388 13.5394 6.83245 14.0441 7.83545 14.2677C8.83845 14.4914 9.88441 14.4248 10.8509 14.0756C11.8174 13.7265 12.6645 13.1094 13.2931 12.2964C13.6386 11.8496 13.9102 11.3537 14.1005 10.8278Z" />
</svg>
