<svg viewBox="0 0 24 24" xmlns="http://www.w3.org/2000/svg">
  <path fill-rule="evenodd" clip-rule="evenodd"
    d="M7.92423 3.61765L8.32523 4.58565C8.53623 5.09565 8.29423 5.68065 7.78423 5.89165C7.27323 6.10365 6.68823 5.86065 6.47723 5.35065L6.07623 4.38265C5.86523 3.87265 6.10723 3.28765 6.61723 3.07665C7.12823 2.86465 7.71323 3.10765 7.92423 3.61765ZM14.954 4C13.662 4 12.37 4.493 11.384 5.478L9.47264 7.39022C9.32052 7.54241 9.14484 7.66905 8.95237 7.76527L4.43597 10.023C3.94097 10.271 3.85197 10.798 4.24897 11.195L12.805 19.75C13.203 20.147 13.727 20.063 13.976 19.563L16.236 15.0467C16.332 14.8548 16.4583 14.6796 16.61 14.5279L18.522 12.615C20.25 10.888 20.463 8.22 19.162 6.259C19.187 6.239 19.212 6.216 19.236 6.192C19.63 5.799 19.63 5.16 19.236 4.765C18.842 4.371 18.203 4.371 17.808 4.765C17.785 4.789 17.762 4.813 17.742 4.839C16.899 4.28 15.926 4 14.954 4ZM9.314 17.6685C8.533 18.4495 7.266 18.4495 6.485 17.6685C5.704 16.8875 5.704 15.6205 6.485 14.8395L9.314 17.6685ZM5.35123 6.47723L4.38323 6.07623C3.87323 5.86523 3.28823 6.10723 3.07623 6.61723C2.86523 7.12723 3.10723 7.71223 3.61723 7.92423L4.58523 8.32523C5.09523 8.53623 5.68023 8.29423 5.89223 7.78423C6.10323 7.27423 5.86123 6.68923 5.35123 6.47723ZM16.2175 18.076C15.7085 18.288 15.4655 18.873 15.6755 19.383L16.0775 20.351C16.2885 20.861 16.8735 21.104 17.3845 20.892C17.8935 20.682 18.1365 20.097 17.9255 19.585L17.5245 18.618C17.3655 18.233 16.9925 18 16.5995 18C16.4725 18 16.3425 18.025 16.2175 18.076ZM18.6167 17.525C18.1077 17.313 17.8647 16.728 18.0767 16.219C18.2357 15.833 18.6087 15.6 19.0007 15.6C19.1287 15.6 19.2577 15.625 19.3827 15.677L20.3517 16.078C20.8607 16.29 21.1037 16.874 20.8927 17.384C20.6807 17.895 20.0947 18.137 19.5857 17.926L18.6167 17.525Z" />
</svg>