<svg viewBox="0 0 26 26" xmlns="http://www.w3.org/2000/svg">
  <path fill-rule="evenodd" clip-rule="evenodd"
    d="M12.3326 5.93451C13.4008 4.86743 14.8005 4.33334 16.2001 4.33334C17.2531 4.33334 18.3072 4.63668 19.2205 5.24226C19.2421 5.2141 19.267 5.18811 19.2919 5.16212L19.292 5.16209C19.7199 4.73526 20.4121 4.73526 20.839 5.16209C21.2658 5.59001 21.2658 6.28226 20.839 6.70801C20.813 6.73401 20.7859 6.75893 20.7588 6.78059C22.1682 8.90501 21.9375 11.7953 20.0655 13.6663L17.9751 15.7576C17.8234 15.9094 17.6971 16.0846 17.6011 16.2765L15.1406 21.1933C14.8709 21.7349 14.3032 21.8259 13.8721 21.3958L4.60306 12.1279C4.17298 11.6978 4.26939 11.1269 4.80564 10.8583L9.72263 8.40028C9.9151 8.30406 10.0908 8.17742 10.2429 8.02523L12.3326 5.93451ZM16.0733 14.7194C16.1663 14.5441 16.2849 14.3837 16.4252 14.2434L18.5339 12.1338C19.6493 11.0189 19.8141 9.27581 18.9533 7.9784L18.6939 7.58728C18.62 7.47594 18.5246 7.38054 18.4132 7.3067L18.0231 7.048C17.4812 6.68864 16.8472 6.50001 16.2001 6.50001C15.3283 6.50001 14.4941 6.83808 13.8644 7.46685L11.5265 9.80587C11.3744 9.95805 11.1987 10.0847 11.0062 10.1809L7.48206 11.9426L14.0571 18.5169L16.0733 14.7194ZM10.0902 19.1409C9.24409 19.987 7.87151 19.987 7.02543 19.1409C6.17934 18.2948 6.17934 16.9222 7.02543 16.0761L10.0902 19.1409Z" />
</svg>