<svg width="26" height="26" viewBox="0 0 26 26" xmlns="http://www.w3.org/2000/svg">
  <path fill-rule="evenodd" clip-rule="evenodd"
    d="M10.2408 8.02468L12.3305 5.93396C13.3987 4.86688 14.7983 4.33279 16.198 4.33279C17.251 4.33279 18.3051 4.63613 19.2183 5.24171C19.24 5.21354 19.2649 5.18754 19.2898 5.16154C19.7178 4.73471 20.41 4.73471 20.8368 5.16154C21.2637 5.58946 21.2637 6.28171 20.8368 6.70746C20.8108 6.73346 20.7838 6.75838 20.7567 6.78004C22.1661 8.90446 21.9353 11.7948 20.0633 13.6657L17.973 15.7571C17.8213 15.9088 17.695 16.084 17.5989 16.2759L15.1385 21.1927C14.8688 21.7344 14.3011 21.8254 13.8699 21.3953L4.60092 12.1274C4.17084 11.6973 4.26726 11.1264 4.80351 10.8577L9.7205 8.39973C9.91296 8.30351 10.0886 8.17687 10.2408 8.02468ZM10.0902 19.1409C9.24409 19.987 7.87151 19.987 7.02542 19.1409C6.17934 18.2948 6.17934 16.9222 7.02542 16.0761L10.0902 19.1409Z" />
</svg>