<svg viewBox="0 0 18 18" xmlns="http://www.w3.org/2000/svg">
  <path fill-rule="evenodd" clip-rule="evenodd"
    d="M6 3.75C6.9838 3.75 7.8198 4.38087 8.12565 5.26026C8.1661 5.25351 8.20764 5.25 8.25 5.25H15C15.4142 5.25 15.75 5.58579 15.75 6C15.75 6.41421 15.4142 6.75 15 6.75H8.25C8.20764 6.75 8.1661 6.74649 8.12565 6.73974C7.8198 7.61913 6.9838 8.25 6 8.25C5.0162 8.25 4.1802 7.61913 3.87435 6.73974C3.83391 6.74649 3.79236 6.75 3.75 6.75H3C2.58579 6.75 2.25 6.41421 2.25 6C2.25 5.58579 2.58579 5.25 3 5.25H3.75C3.79236 5.25 3.83391 5.25351 3.87435 5.26026C4.1802 4.38087 5.0162 3.75 6 3.75ZM14.1256 11.2603C13.8198 10.3809 12.9838 9.75 12 9.75C11.0162 9.75 10.1802 10.3809 9.87435 11.2603C9.8339 11.2535 9.79236 11.25 9.75 11.25H3C2.58579 11.25 2.25 11.5858 2.25 12C2.25 12.4142 2.58579 12.75 3 12.75H9.75C9.79236 12.75 9.8339 12.7465 9.87435 12.7397C10.1802 13.6191 11.0162 14.25 12 14.25C12.9838 14.25 13.8198 13.6191 14.1256 12.7397C14.1661 12.7465 14.2076 12.75 14.25 12.75H15C15.4142 12.75 15.75 12.4142 15.75 12C15.75 11.5858 15.4142 11.25 15 11.25H14.25C14.2076 11.25 14.1661 11.2535 14.1256 11.2603ZM12.75 12C12.75 12.4145 12.4145 12.75 12 12.75C11.5855 12.75 11.25 12.4145 11.25 12C11.25 11.5855 11.5855 11.25 12 11.25C12.4145 11.25 12.75 11.5855 12.75 12ZM6 6.75C6.41454 6.75 6.75 6.41454 6.75 6C6.75 5.58546 6.41454 5.25 6 5.25C5.58546 5.25 5.25 5.58546 5.25 6C5.25 6.41454 5.58546 6.75 6 6.75Z" />
</svg>