<svg viewBox="0 0 16 16" fill="none"
    xmlns="http://www.w3.org/2000/svg">
    <path fill-rule="evenodd" clip-rule="evenodd" d="M12.3318 9.73763C12.652 9.91945 12.7641 10.3264 12.5823 10.6466C11.6466 12.2942 9.90727 13.3333 7.98727 13.3333C5.92219 13.3333 4.07347 12.1305 3.20473 10.2845C3.13037 10.1234 3.03004 9.86285 2.93147 9.5221C2.66627 8.60526 2.57652 7.65402 2.77449 6.73989C2.90805 6.12318 3.16983 5.55788 3.5742 5.06422C4.81492 3.54911 6.28145 2.66667 7.98727 2.66667C9.92999 2.66667 11.6818 3.73228 12.6061 5.39598V4.66687C12.6061 4.29868 12.9046 4.0002 13.2728 4.0002C13.641 4.0002 13.9395 4.29868 13.9395 4.66687V7.26687C13.9395 7.6698 13.6136 8.0002 13.2068 8.0002H10.6368C10.2686 8.0002 9.97012 7.70173 9.97012 7.33354C9.97012 6.96535 10.2686 6.66687 10.6368 6.66687H11.7204C11.6753 6.53796 11.6231 6.41039 11.5643 6.28496C10.9131 4.90072 9.52996 4.00001 7.98727 4.00001C6.73847 4.00001 5.61588 4.67549 4.60572 5.90905C4.3401 6.23333 4.16792 6.60515 4.07762 7.02211C3.93337 7.68817 4.00326 8.42893 4.2123 9.15161C4.29077 9.42289 4.36747 9.62211 4.41327 9.72138C5.06243 11.1007 6.44466 12 7.98727 12C9.42162 12 10.7213 11.2235 11.4229 9.98812C11.6047 9.66796 12.0117 9.55581 12.3318 9.73763Z" />
</svg>
