<svg viewBox="0 0 18 18" xmlns="http://www.w3.org/2000/svg">
  <path fill-rule="evenodd" clip-rule="evenodd"
    d="M8.7762 12.5255C6.70395 12.5255 5.0247 10.8455 5.0247 8.77403C5.0247 6.70178 6.70395 5.02253 8.7762 5.02253C10.8485 5.02253 12.5277 6.70178 12.5277 8.77403C12.5277 10.8455 10.8485 12.5255 8.7762 12.5255ZM15.0522 10.1878C14.465 9.98378 14.0427 9.43103 14.0427 8.77403C14.0427 8.11703 14.465 7.56428 15.0515 7.36028C15.2292 7.29878 15.3387 7.11053 15.2877 6.92978C15.1385 6.40178 14.9262 5.90153 14.6607 5.43503C14.5722 5.27903 14.378 5.22128 14.2122 5.28878C13.9235 5.40728 13.5897 5.43803 13.244 5.34953C12.7385 5.21903 12.3252 4.80728 12.1917 4.30253C12.1002 3.95528 12.131 3.62003 12.2487 3.32978C12.3155 3.16478 12.2577 2.97053 12.1017 2.88203C11.639 2.62028 11.1425 2.41028 10.6205 2.26253C10.439 2.21153 10.2515 2.32028 10.19 2.49803C9.98597 3.08528 9.43322 3.50753 8.77622 3.50753C8.11997 3.50753 7.56647 3.08528 7.36322 2.49878C7.30097 2.32103 7.11272 2.21153 6.93197 2.26253C6.40097 2.41253 5.89772 2.62628 5.42897 2.89403C5.27822 2.98028 5.21447 3.16928 5.28047 3.33053C5.39072 3.60128 5.42447 3.91028 5.35397 4.23278C5.23772 4.76228 4.81847 5.20553 4.29422 5.34578C3.95072 5.43803 3.62072 5.40878 3.33422 5.29478C3.16922 5.22878 2.97572 5.28728 2.88797 5.44178C2.62322 5.90828 2.41172 6.40928 2.26322 6.93728C2.21222 7.11653 2.31947 7.30253 2.49422 7.36628C3.07247 7.57478 3.48647 8.12378 3.48647 8.77403C3.48647 9.42428 3.07247 9.97328 2.49347 10.1818C2.31872 10.2448 2.21222 10.4308 2.26247 10.61C2.39522 11.0803 2.57897 11.5295 2.80472 11.9525C2.89397 12.119 3.10097 12.176 3.27272 12.0973C3.71897 11.8925 4.27997 11.8993 4.85072 12.2758C4.93847 12.3335 5.01947 12.4145 5.07722 12.5015C5.47247 13.1008 5.46122 13.6865 5.22572 14.1418C5.13947 14.309 5.18972 14.5175 5.35172 14.6128C5.84222 14.9008 6.37322 15.128 6.93347 15.2855C7.11422 15.3365 7.30022 15.2285 7.36097 15.0508C7.56272 14.4613 8.11772 14.036 8.77622 14.036C9.43472 14.036 9.98972 14.4613 10.1915 15.0508C10.2522 15.2278 10.4382 15.3365 10.619 15.2855C11.1717 15.1303 11.696 14.906 12.182 14.6233C12.3455 14.528 12.395 14.3173 12.3072 14.15C12.0687 13.694 12.0545 13.1053 12.4505 12.5038C12.5082 12.4168 12.5892 12.335 12.677 12.2773C13.256 11.894 13.8222 11.8925 14.2707 12.1048C14.4425 12.1858 14.6517 12.1295 14.7417 11.9623C14.9697 11.5393 15.1535 11.0893 15.2877 10.6175C15.3387 10.4368 15.23 10.2493 15.0522 10.1878Z" />
</svg>