<svg viewBox="0 0 18 18" xmlns="http://www.w3.org/2000/svg">
  <path fill-rule="evenodd" clip-rule="evenodd"
    d="M3 4.25C3 3.14543 3.89543 2.25 5 2.25H9V3.80555H4.3333V14.6944H9V16.25H5C3.89543 16.25 3 15.3546 3 14.25V4.25ZM11.8691 6.37619C11.5992 6.69396 11.5992 7.2084 11.8691 7.52535L12.6732 8.47223H6.31761C5.95829 8.47223 5.66667 8.82127 5.66667 9.25039C5.66667 9.67951 5.95829 10.0278 6.31761 10.0278H12.673L11.8691 10.9744C11.5992 11.2906 11.5992 11.8058 11.8691 12.1228C12.1384 12.4405 12.5754 12.4405 12.8454 12.1228L14.7986 9.82447C15.0671 9.50671 15.0671 8.99308 14.7986 8.67532L12.8454 6.37619C12.7101 6.21772 12.5333 6.13889 12.3566 6.13889C12.1805 6.13889 12.0031 6.21772 11.8691 6.37619Z" />
</svg>